<svg xmlns="http://www.w3.org/2000/svg" version="1.1" xmlns:xlink="http://www.w3.org/1999/xlink" xmlns:svgjs="http://svgjs.dev/svgjs" viewBox="0 0 800 800"><g transform="matrix(1,0,0,1,0,0)"><circle r="50" cx="433" cy="446" stroke-width="0.5" stroke="#ff3895" fill="none" opacity="0.1" transform="matrix(0.8158422233174031,-2.5289867249194007,-2.668499672407651,1.1792858772022452,1266.601987063721,1017.279660603407)"></circle><circle r="52.04081632653061" cx="432.3265306122449" cy="445.0612244897959" stroke-width="0.8163265306122449" stroke="#fd3b98" fill="none" opacity="0.11836734693877551" transform="matrix(0.7961768457101688,-2.873265097354671,-3.0099353283378454,1.1991480020183924,1424.5687655371373,1155.659362024065)"></circle><circle r="54.08163265306123" cx="431.6530612244898" cy="444.1224489795918" stroke-width="1.1326530612244898" stroke="#fb3f9b" fill="none" opacity="0.13673469387755102" transform="matrix(0.7714181772649873,-3.308084164894612,-3.4419114019408004,1.2240993672894531,1624.2747914306249,1330.4362824243892)"></circle><circle r="56.12244897959184" cx="430.9795918367347" cy="443.18367346938777" stroke-width="1.4489795918367347" stroke="#f8429e" fill="none" opacity="0.15510204081632656" transform="matrix(0.7391087974444953,-3.8768040930280208,-4.00778806447641,1.2565973931616288,1885.7304347934116,1559.039895320997)"></circle><circle r="58.16326530612245" cx="430.3061224489796" cy="442.2448979591837" stroke-width="1.7653061224489797" stroke="#f645a0" fill="none" opacity="0.17346938775510207" transform="matrix(0.6949269015635853,-4.655687372376658,-4.7838278123380835,1.3009638839370874,2244.12938395602,1872.12595702138)"></circle><circle r="60.20408163265306" cx="429.6326530612245" cy="441.3061224489796" stroke-width="2.0816326530612246" stroke="#f448a3" fill="none" opacity="0.19183673469387758" transform="matrix(0.6305032422889972,-5.792423937400143,-5.91772058575763,1.3655680865743727,2767.6283237467105,2329.0624501476186)"></circle><circle r="62.244897959183675" cx="428.9591836734694" cy="440.3673469387755" stroke-width="2.3979591836734695" stroke="#f24aa6" fill="none" opacity="0.21020408163265308" transform="matrix(0.5272327962739201,-7.615338681649266,-7.737791284058558,1.4690150240538047,3607.742533486171,3061.8280065827635)"></circle><circle r="64.28571428571429" cx="428.2857142857143" cy="439.42857142857144" stroke-width="2.7142857142857144" stroke="#f04da8" fill="none" opacity="0.2285714285714286" transform="matrix(0.3337315574535018,-11.031218762411203,-11.150827070301272,1.6626887020819685,5182.936663840761,4434.929990474317)"></circle><circle r="66.3265306122449" cx="427.61224489795916" cy="438.48979591836735" stroke-width="3.0306122448979593" stroke="#ed50ab" fill="none" opacity="0.2469387755102041" transform="matrix(-0.16318733597456592,-19.802239964706455,-19.91900373528001,2.1597759821111318,9229.37904753543,7960.676717606882)"></circle><circle r="68.36734693877551" cx="426.9387755102041" cy="437.55102040816325" stroke-width="3.3469387755102042" stroke="#eb52ad" fill="none" opacity="0.2653061224489796" transform="matrix(-4.331867405363718,-93.37065778003152,-93.48457677626551,6.328620385152916,43178.47228508058,37533.486368545324)"></circle><circle r="70.40816326530611" cx="426.265306122449" cy="436.61224489795916" stroke-width="3.663265306122449" stroke="#e955b0" fill="none" opacity="0.2836734693877551" transform="matrix(2.922857513031635,34.652850179777026,34.54177618913095,-0.9259442528718567,-15903.083188274313,-13929.014734049922)"></circle><circle r="72.44897959183673" cx="425.59183673469386" cy="435.6734693877551" stroke-width="3.979591836734694" stroke="#e657b2" fill="none" opacity="0.3020408163265306" transform="matrix(1.7885807237941722,14.632279431655352,14.524050672070349,0.20848876312877707,-6665.324906516375,-5881.20570887683)"></circle><circle r="74.48979591836735" cx="424.9183673469388" cy="434.734693877551" stroke-width="4.295918367346939" stroke="#e459b5" fill="none" opacity="0.3204081632653062" transform="matrix(1.48493641030581,9.269521091046311,9.16413778221991,0.5122852494557697,-4191.891730860309,-3725.498356520977)"></circle><circle r="76.53061224489795" cx="424.2448979591837" cy="433.7959183673469" stroke-width="4.612244897959184" stroke="#e15bb7" fill="none" opacity="0.3387755102040817" transform="matrix(1.343834748830146,6.77457424229485,6.672036598148491,0.6535350295366228,-3041.9370161789784,-2722.5849401447513)"></circle><circle r="78.57142857142857" cx="423.57142857142856" cy="432.85714285714283" stroke-width="4.928571428571429" stroke="#df5eba" fill="none" opacity="0.3571428571428572" transform="matrix(1.2621987623509954,5.3284031563719285,5.228711385050534,0.7353150800868493,-2376.0120117189845,-2141.2544754065966)"></circle><circle r="80.61224489795919" cx="422.8979591836735" cy="431.9183673469388" stroke-width="5.244897959183674" stroke="#dd60bc" fill="none" opacity="0.3755102040816327" transform="matrix(1.2089106946053723,4.381859093812305,4.285013397683856,0.7887431570769947,-1940.6963923771602,-1760.7621697354068)"></circle><circle r="82.65306122448979" cx="422.2244897959184" cy="430.9795918367347" stroke-width="5.561224489795919" stroke="#da62be" fill="none" opacity="0.3938775510204082" transform="matrix(1.1713483634203903,3.712189874669598,3.6181904503247204,0.8264414423957349,-1633.1943900261106,-1491.5669014513562)"></circle><circle r="84.6938775510204" cx="421.55102040816325" cy="430.0408163265306" stroke-width="5.877551020408164" stroke="#d764c1" fill="none" opacity="0.41224489795918373" transform="matrix(1.1434212675090674,3.211909132025755,3.1207561702773257,0.8545004370540744,-1403.903417436628,-1290.4618362610943)"></circle><circle r="86.73469387755102" cx="420.8775510204082" cy="429.1020408163265" stroke-width="6.1938775510204085" stroke="#d566c3" fill="none" opacity="0.43061224489795924" transform="matrix(1.1218295547811659,2.822777080915097,2.7344707667978545,0.876219992874504,-1225.9477344459788,-1134.0358945428968)"></circle><circle r="88.77551020408163" cx="420.2040816326531" cy="428.16326530612247" stroke-width="6.510204081632653" stroke="#d268c5" fill="none" opacity="0.44897959183673475" transform="matrix(1.104629960269335,2.5104931281618104,2.425033640931977,0.8935433745648615,-1083.4981288010076,-1008.5010236818325)"></circle><circle r="90.81632653061224" cx="419.53061224489795" cy="427.2244897959184" stroke-width="6.826530612244898" stroke="#d06ac7" fill="none" opacity="0.46734693877551026" transform="matrix(1.090603663089162,2.253540204266871,2.170927717401792,0.9076894027582796,-966.625634923108,-905.2082826730777)"></circle><circle r="92.85714285714286" cx="418.85714285714283" cy="426.2857142857143" stroke-width="7.142857142857143" stroke="#cd6cc9" fill="none" opacity="0.48571428571428577" transform="matrix(1.0789474979663685,2.0377354337648432,1.9579701149626334,0.9194612424859901,-868.7857123780643,-818.456371224057)"></circle><circle r="94.89795918367346" cx="418.18367346938777" cy="425.3469387755102" stroke-width="7.459183673469388" stroke="#ca6dcc" fill="none" opacity="0.5040816326530613" transform="matrix(1.0691107107591833,1.8533492625138228,1.7764312736930261,0.929409647654952,-785.4888203127134,-744.33448915212)"></circle><circle r="96.93877551020408" cx="417.51020408163265" cy="424.40816326530614" stroke-width="7.775510204081633" stroke="#c86fce" fill="none" opacity="0.5224489795918368" transform="matrix(1.060703053569808,1.6934835321318975,1.6194130294311584,0.9379248659363867,-713.5522183504868,-680.0696934434214)"></circle><circle r="98.9795918367347" cx="416.83673469387753" cy="423.46938775510205" stroke-width="8.091836734693878" stroke="#c571d0" fill="none" opacity="0.5408163265306123" transform="matrix(1.0534403168882802,1.5531102116119682,1.4818873453897146,0.9452911066219138,-650.6562772906257,-623.6411710660237)"></circle><circle r="101.0204081632653" cx="416.16326530612247" cy="422.53061224489795" stroke-width="8.408163265306122" stroke="#c273d2" fill="none" opacity="0.5591836734693878" transform="matrix(1.047110638757277,1.4284767808943477,1.3601016957284857,0.9517202314587502,-595.0700293189345,-573.5404537577788)"></circle><circle r="103.06122448979592" cx="415.48979591836735" cy="421.59183673469386" stroke-width="8.724489795918368" stroke="#bf74d4" fill="none" opacity="0.5775510204081633" transform="matrix(1.0415528976166144,1.316724851522256,1.2511976862098773,0.9573733618052094,-545.4752856053622,-528.6188021008547)"></circle><circle r="105.10204081632654" cx="414.81632653061223" cy="420.6530612244898" stroke-width="9.040816326530614" stroke="#bc76d6" fill="none" opacity="0.5959183673469388" transform="matrix(1.0366424181013407,1.2156378330807884,1.1529587206378866,0.9623751728326084,-500.85004089007333,-487.98519672297317)"></circle><circle r="107.14285714285714" cx="414.14285714285717" cy="419.7142857142857" stroke-width="9.357142857142858" stroke="#b978d8" fill="none" opacity="0.6142857142857143" transform="matrix(1.0322812567912,1.1234694143914286,1.0636384820526315,0.9668236077758066,-460.38943568488935,-450.9379551848763)"></circle><circle r="109.18367346938776" cx="413.46938775510205" cy="418.7755102040816" stroke-width="9.673469387755102" stroke="#b77ada" fill="none" opacity="0.6326530612244898" transform="matrix(1.0283914430979328,1.038824184880013,0.9818415540983231,0.9707966370459035,-423.4506308063736,-416.91621021252257)"></circle><circle r="111.22448979591837" cx="412.7959183673469" cy="417.83673469387753" stroke-width="9.989795918367347" stroke="#b47bdc" fill="none" opacity="0.6510204081632653" transform="matrix(1.0249101775374931,0.9605727873395243,0.906438573786072,0.9743570599580222,-389.51362686529774,-385.46614586384374)"></circle><circle r="113.26530612244898" cx="412.1224489795918" cy="416.8979591836735" stroke-width="10.306122448979593" stroke="#b07dde" fill="none" opacity="0.6693877551020408" transform="matrix(1.0217863569817451,0.887790475849512,0.836504789413321,0.9775559794796144,-358.1530484595766,-356.2161851098225)"></circle><circle r="115.3061224489796" cx="411.44897959183675" cy="415.9591836734694" stroke-width="10.622448979591837" stroke="#ad7ee0" fill="none" opacity="0.6877551020408164" transform="matrix(1.0189780183803612,0.819711868302536,0.7712748130903009,0.9804353585085619,-329.0172055797489,-328.85893095213163)"></circle><circle r="117.34693877551021" cx="410.7755102040816" cy="415.0204081632653" stroke-width="10.938775510204081" stroke="#aa80e2" fill="none" opacity="0.7061224489795919" transform="matrix(1.0164504301838753,0.7556971135201146,0.710108787855989,0.983029928450123,-301.8122337672255,-303.1372274237968)"></circle><circle r="119.38775510204081" cx="410.1020408163265" cy="414.0816326530612" stroke-width="11.255102040816327" stroke="#a782e4" fill="none" opacity="0.7244897959183674" transform="matrix(1.0141746483138976,0.6952062388626801,0.6524667352880769,0.9853686332467183,-276.29076221060456,-278.8342615861282)"></circle><circle r="121.42857142857143" cx="409.42857142857144" cy="413.1428571428571" stroke-width="11.571428571428573" stroke="#a483e6" fill="none" opacity="0.7428571428571429" transform="matrix(1.0121264104983547,0.6377794493484319,0.5978888546218357,0.9874757350426924,-252.2424198941369,-255.76538786436487)"></circle><circle r="123.46938775510205" cx="408.7551020408163" cy="412.2040816326531" stroke-width="11.887755102040817" stroke="#a085e8" fill="none" opacity="0.7612244897959184" transform="matrix(1.0102852805830305,0.5830218159089727,0.545980211005764,0.9893716698727708,-229.4869574479738,-233.7720395280237)"></circle><circle r="125.51020408163265" cx="408.0816326530612" cy="411.265306122449" stroke-width="12.204081632653061" stroke="#9d86ea" fill="none" opacity="0.7795918367346939" transform="matrix(1.0086339799626334,0.5305912405817174,0.49639870069400704,0.9910737162309947,-207.86871528578365,-212.71695824814452)"></circle><circle r="127.55102040816327" cx="407.40816326530614" cy="410.3265306122449" stroke-width="12.520408163265307" stroke="#9988eb" fill="none" opacity="0.7979591836734694" transform="matrix(1.0071578608138438,0.4801888954911871,0.4488454900276651,0.9925965218376732,-187.2521311643776,-192.48019927589127)"></circle><circle r="129.59183673469389" cx="406.734693877551" cy="409.38775510204084" stroke-width="12.836734693877553" stroke="#9689ed" fill="none" opacity="0.8163265306122449" transform="matrix(1.0058444880488693,0.4315515478521167,0.4030573404379104,0.9939525216858277,-167.51832813419747,-172.9562203410713)"></circle><circle r="131.6326530612245" cx="406.0612244897959" cy="408.44897959183675" stroke-width="13.153061224489797" stroke="#928bef" fill="none" opacity="0.8346938775510204" transform="matrix(1.0046833055679345,0.3844453353967002,0.35880038387324553,0.995152271788704,-148.56219831758784,-154.0512606630216)"></circle><circle r="133.67346938775512" cx="405.38775510204084" cy="407.51020408163265" stroke-width="13.46938775510204" stroke="#8e8cf1" fill="none" opacity="0.8530612244897959" transform="matrix(1.0036653686014556,0.33866066548139007,0.31586502190631394,0.9962047168375956,-130.29006136574043,-135.68134992421255)"></circle><circle r="135.71428571428572" cx="404.7142857142857" cy="406.57142857142856" stroke-width="13.785714285714286" stroke="#8a8df3" fill="none" opacity="0.8714285714285714" transform="matrix(1.0027831284470279,0.29400798986795057,0.2740617005149654,0.997117405464858,-112.61781360786483,-117.77056595231187)"></circle><circle r="137.75510204081633" cx="404.0408163265306" cy="405.63265306122446" stroke-width="14.102040816326532" stroke="#868ff5" fill="none" opacity="0.889795918367347" transform="matrix(1.0020302592283472,0.25031426468843515,0.2332173700472446,0.9978966634849873,-95.46918785882042,-100.2496574986746)"></circle><circle r="139.79591836734693" cx="403.36734693877554" cy="404.6938775510204" stroke-width="14.418367346938776" stroke="#8290f6" fill="none" opacity="0.9081632653061225" transform="matrix(1.0014015187787895,0.20741994745903783,0.19317248223525488,0.9985477330110395,-78.77456511429745,-83.05483393136439)"></circle><circle r="141.83673469387756" cx="402.6938775510204" cy="403.7551020408163" stroke-width="14.73469387755102" stroke="#7e92f8" fill="none" opacity="0.926530612244898" transform="matrix(1.0008926376216696,0.1651764143895616,0.15377840750463811,0.9990748834743736,-62.46971709246833,-66.126721388384)"></circle><circle r="143.87755102040816" cx="402.0204081632653" cy="402.81632653061223" stroke-width="15.051020408163266" stroke="#7993fa" fill="none" opacity="0.9448979591836735" transform="matrix(1.0005002314511908,0.12344370456181925,0.11489517915298705,0.9994814991436999,-46.494812023898305,-49.40941882481849)"></circle><circle r="145.9183673469388" cx="401.3469387755102" cy="401.8775510204082" stroke-width="15.367346938775512" stroke="#7594fc" fill="none" opacity="0.963265306122449" transform="matrix(1.0002217336335404,0.08208851487128366,0.07638948829150782,0.999770146623988,-30.793567939423042,-32.849768350171814)"></circle><circle r="147.9591836734694" cx="400.6734693877551" cy="400.9387755102041" stroke-width="15.683673469387756" stroke="#7096fd" fill="none" opacity="0.9816326530612246" transform="matrix(1.000055345134157,0.040982382386835575,0.038132866204779,0.999942624929195,-15.312457862794133,-16.39658996720982)"></circle><circle r="150" cx="400" cy="400" stroke-width="16" stroke="#6b97ff" fill="none" opacity="1.0000000000000002" transform="matrix(1,7.750818884463626e-18,-7.750818884463626e-18,1,0,0)"></circle></g></svg>